# xmcd CD database file
#
# Track frame offsets:
#	150
#	12712
#	25759
#	45697
#	62916
#	78976
#	91322
#	105957
#	126755
#	137982
#	154031
#	176451
#
# Disc length: 2889 seconds
#
# Revision: 0
# Processed by: cddbd v1.5.2PL0 Copyright (c) Steve Scherf et al.
# Submitted via: CDex 1.70beta2
#
DISCID=950b470c
DTITLE=John Mayall - Blues From Laurel Canyon
DYEAR=1968
DGENRE=Blues
TTITLE0=Vacation
TTITLE1=Walking On Sunset
TTITLE2=Laurel Canyon Home
TTITLE3=2401
TTITLE4=Ready To Ride
TTITLE5=Medicine Man
TTITLE6=Somebody's Acting Like A Child
TTITLE7=The Bear
TTITLE8=Miss James
TTITLE9=Long Gone Midnight
TTITLE10=First Time Alone
TTITLE11=Fly Tomorrow
EXTD=YEAR: 1968
EXTT0=
EXTT1=
EXTT2=
EXTT3=
EXTT4=
EXTT5=
EXTT6=
EXTT7=
EXTT8=
EXTT9=
EXTT10=
EXTT11=
PLAYORDER=
